<?xml version="1.0" encoding="UTF-8" standalone="no"?>
<!-- Created with Inkscape (http://www.inkscape.org/) -->

<svg
   xmlns:osb="http://www.openswatchbook.org/uri/2009/osb"
   xmlns:dc="http://purl.org/dc/elements/1.1/"
   xmlns:cc="http://creativecommons.org/ns#"
   xmlns:rdf="http://www.w3.org/1999/02/22-rdf-syntax-ns#"
   xmlns:svg="http://www.w3.org/2000/svg"
   xmlns="http://www.w3.org/2000/svg"
   xmlns:sodipodi="http://sodipodi.sourceforge.net/DTD/sodipodi-0.dtd"
   xmlns:inkscape="http://www.inkscape.org/namespaces/inkscape"
   width="15.804444mm"
   height="15.804444mm"
   viewBox="0 0 55.999999 55.999999"
   id="svg2"
   version="1.1"
   inkscape:version="0.91 r13725"
   sodipodi:docname="circle_gray.svg">
  <defs
     id="defs4">
    <linearGradient
       id="linearGradient4140"
       osb:paint="solid">
      <stop
         style="stop-color:#000000;stop-opacity:1;"
         offset="0"
         id="stop4142" />
    </linearGradient>
    <filter
       inkscape:collect="always"
       style="color-interpolation-filters:sRGB"
       id="filter5982"
       x="-0.059999999"
       width="1.12"
       y="-0.059999999"
       height="1.12">
      <feGaussianBlur
         inkscape:collect="always"
         stdDeviation="1.25"
         id="feGaussianBlur5984" />
    </filter>
  </defs>
  <sodipodi:namedview
     id="base"
     pagecolor="#ffffff"
     bordercolor="#666666"
     borderopacity="1.0"
     inkscape:pageopacity="0.0"
     inkscape:pageshadow="2"
     inkscape:zoom="7.9195959"
     inkscape:cx="-4.1292242"
     inkscape:cy="27.282437"
     inkscape:document-units="px"
     inkscape:current-layer="layer1"
     showgrid="false"
     inkscape:window-width="1920"
     inkscape:window-height="1138"
     inkscape:window-x="-8"
     inkscape:window-y="-8"
     inkscape:window-maximized="1"
     fit-margin-top="0"
     fit-margin-left="0"
     fit-margin-right="0"
     fit-margin-bottom="0" />
  <metadata
     id="metadata7">
    <rdf:RDF>
      <cc:Work
         rdf:about="">
        <dc:format>image/svg+xml</dc:format>
        <dc:type
           rdf:resource="http://purl.org/dc/dcmitype/StillImage" />
        <dc:title></dc:title>
      </cc:Work>
    </rdf:RDF>
  </metadata>
  <g
     inkscape:label="Layer 1"
     inkscape:groupmode="layer"
     id="layer1"
     transform="translate(-47,-453.64789)">
    <circle
       style="opacity:1;fill:#b3b3b3;fill-opacity:1;fill-rule:nonzero;stroke:none;stroke-width:5;stroke-linecap:round;stroke-linejoin:miter;stroke-miterlimit:4;stroke-dasharray:none;stroke-opacity:1;filter:url(#filter5982)"
       id="path4138"
       cx="75"
       cy="481.64789"
       r="25" />
    <g
       transform="matrix(1.1287106,0,0,1.1287106,47.909612,454.54021)"
       id="g7"
       style="fill:#ffffff">
      <path
         style="fill:#ffffff"
         inkscape:connector-curvature="0"
         id="path9"
         d="m 22.782,31.945 c -1.723,0 -2.584,0.885 -2.584,2.654 0,0.855 0.223,1.52 0.668,1.994 0.445,0.474 1.084,0.713 1.916,0.713 0.833,0 1.473,-0.244 1.924,-0.73 0.451,-0.486 0.678,-1.145 0.678,-1.977 0,-0.844 -0.223,-1.498 -0.668,-1.961 -0.445,-0.463 -1.09,-0.693 -1.934,-0.693 z" />
      <path
         style="fill:#ffffff"
         inkscape:connector-curvature="0"
         id="path11"
         d="m 29.339,12.415 c -1.348,-1.125 -3.17,-1.688 -5.466,-1.688 -2.283,0 -4.443,0.473 -6.486,1.406 -1.146,0.516 -0.632,1.686 -0.63,1.692 l 0.458,0.959 c 0,0 0.541,0.917 1.707,0.466 0.012,-0.004 0.016,-0.002 0.027,-0.007 0.504,-0.211 1.014,-0.407 1.532,-0.58 0.949,-0.316 1.98,-0.475 3.094,-0.475 1.23,0 2.173,0.264 2.83,0.791 0.657,0.527 0.984,1.283 0.984,2.268 0,0.844 -0.203,1.57 -0.607,2.18 -0.404,0.61 -1.303,1.465 -2.697,2.566 -1.171,0.914 -1.992,1.799 -2.461,2.654 -0.469,0.856 -0.703,1.929 -0.703,3.218 -0.045,0.938 1.15,1.125 1.15,1.125 l 0.722,0 c 0,0 1.374,0.008 1.584,-1.176 0.003,-0.016 0.008,-0.021 0.011,-0.037 0.048,-0.75 0.22,-1.371 0.531,-1.846 0.369,-0.563 1.1,-1.272 2.189,-2.128 1.277,-0.996 2.176,-1.805 2.697,-2.426 0.521,-0.621 0.912,-1.274 1.17,-1.96 0.258,-0.686 0.387,-1.468 0.387,-2.347 -0.002,-1.977 -0.675,-3.53 -2.023,-4.655 z" />
    </g>
  </g>
</svg>
