<?xml version="1.0" encoding="UTF-8" standalone="no"?>
<!-- Created with Inkscape (http://www.inkscape.org/) -->

<svg
   xmlns:osb="http://www.openswatchbook.org/uri/2009/osb"
   xmlns:dc="http://purl.org/dc/elements/1.1/"
   xmlns:cc="http://creativecommons.org/ns#"
   xmlns:rdf="http://www.w3.org/1999/02/22-rdf-syntax-ns#"
   xmlns:svg="http://www.w3.org/2000/svg"
   xmlns="http://www.w3.org/2000/svg"
   xmlns:sodipodi="http://sodipodi.sourceforge.net/DTD/sodipodi-0.dtd"
   xmlns:inkscape="http://www.inkscape.org/namespaces/inkscape"
   width="15.804444mm"
   height="15.804444mm"
   viewBox="0 0 55.999999 55.999999"
   id="svg2"
   version="1.1"
   inkscape:version="0.91 r13725"
   sodipodi:docname="circle_red.svg">
  <defs
     id="defs4">
    <linearGradient
       id="linearGradient4140"
       osb:paint="solid">
      <stop
         style="stop-color:#000000;stop-opacity:1;"
         offset="0"
         id="stop4142" />
    </linearGradient>
    <filter
       inkscape:collect="always"
       style="color-interpolation-filters:sRGB"
       id="filter5982"
       x="-0.059999999"
       width="1.12"
       y="-0.059999999"
       height="1.12">
      <feGaussianBlur
         inkscape:collect="always"
         stdDeviation="1.25"
         id="feGaussianBlur5984" />
    </filter>
  </defs>
  <sodipodi:namedview
     id="base"
     pagecolor="#ffffff"
     bordercolor="#666666"
     borderopacity="1.0"
     inkscape:pageopacity="0.0"
     inkscape:pageshadow="2"
     inkscape:zoom="7.9195959"
     inkscape:cx="17.399652"
     inkscape:cy="27.282437"
     inkscape:document-units="px"
     inkscape:current-layer="layer1"
     showgrid="false"
     inkscape:window-width="1920"
     inkscape:window-height="1138"
     inkscape:window-x="-8"
     inkscape:window-y="-8"
     inkscape:window-maximized="1"
     fit-margin-top="0"
     fit-margin-left="0"
     fit-margin-right="0"
     fit-margin-bottom="0" />
  <metadata
     id="metadata7">
    <rdf:RDF>
      <cc:Work
         rdf:about="">
        <dc:format>image/svg+xml</dc:format>
        <dc:type
           rdf:resource="http://purl.org/dc/dcmitype/StillImage" />
        <dc:title></dc:title>
      </cc:Work>
    </rdf:RDF>
  </metadata>
  <g
     inkscape:label="Layer 1"
     inkscape:groupmode="layer"
     id="layer1"
     transform="translate(-47,-453.64789)">
    <circle
       style="opacity:1;fill:#d40000;fill-opacity:1;fill-rule:nonzero;stroke:none;stroke-width:5;stroke-linecap:round;stroke-linejoin:miter;stroke-miterlimit:4;stroke-dasharray:none;stroke-opacity:1;filter:url(#filter5982)"
       id="path4138"
       cx="75"
       cy="481.64789"
       r="25" />
    <g
       id="g6002"
       transform="matrix(1.5,0,0,1.5,-29.403245,-251.95116)"
       style="fill:#ffffff">
      <g
         id="g17"
         transform="translate(37.602163,457.06603)"
         style="fill:#ffffff">
        <path
           d="m 34,32 c 0,1.105 -0.895,2 -2,2 l 0,0 c -1.105,0 -2,-0.895 -2,-2 l 0,-8 c 0,-1.105 0.895,-2 2,-2 l 0,0 c 1.105,0 2,0.895 2,2 l 0,8 z"
           id="path19"
           inkscape:connector-curvature="0"
           style="fill:#ffffff" />
      </g>
      <path
         d="m 71.602163,497.06603 c 0,1.105 -0.895,2 -2,2 l 0,0 c -1.105,0 -2,-0.895 -2,-2 l 0,0 c 0,-1.105 0.895,-2 2,-2 l 0,0 c 1.105,0 2,0.895 2,2 l 0,0 z"
         id="path23"
         inkscape:connector-curvature="0"
         style="fill:#ffffff" />
    </g>
  </g>
</svg>
