<?xml version="1.0" encoding="UTF-8" standalone="no"?>
<!-- Created with Inkscape (http://www.inkscape.org/) -->

<svg
   xmlns:dc="http://purl.org/dc/elements/1.1/"
   xmlns:cc="http://creativecommons.org/ns#"
   xmlns:rdf="http://www.w3.org/1999/02/22-rdf-syntax-ns#"
   xmlns:svg="http://www.w3.org/2000/svg"
   xmlns="http://www.w3.org/2000/svg"
   xmlns:sodipodi="http://sodipodi.sourceforge.net/DTD/sodipodi-0.dtd"
   xmlns:inkscape="http://www.inkscape.org/namespaces/inkscape"
   width="1024"
   height="500"
   viewBox="0 0 1024 499.99998"
   id="svg2"
   version="1.1"
   inkscape:version="0.91 r13725"
   sodipodi:docname="feature_graphic.svg"
   inkscape:export-filename="C:\tmp\feature.png"
   inkscape:export-xdpi="90"
   inkscape:export-ydpi="90">
  <defs
     id="defs4">
    <style
       id="style4140"
       type="text/css"><![CDATA[
    .fil0 {fill:none}
    .fil1 {fill:black}
   ]]></style>
    <clipPath
       id="clipPath4181"
       clipPathUnits="userSpaceOnUse">
      <path
         inkscape:connector-curvature="0"
         id="path4183"
         d="m 0,595.28 841.89,0 L 841.89,0 0,0 0,595.28 Z" />
    </clipPath>
  </defs>
  <sodipodi:namedview
     id="base"
     pagecolor="#ffffff"
     bordercolor="#666666"
     borderopacity="1.0"
     inkscape:pageopacity="0.0"
     inkscape:pageshadow="2"
     inkscape:zoom="0.98994949"
     inkscape:cx="502.66094"
     inkscape:cy="421.45964"
     inkscape:document-units="px"
     inkscape:current-layer="layer1"
     showgrid="false"
     inkscape:window-width="1920"
     inkscape:window-height="1138"
     inkscape:window-x="-8"
     inkscape:window-y="-8"
     inkscape:window-maximized="1"
     borderlayer="true"
     units="px" />
  <metadata
     id="metadata7">
    <rdf:RDF>
      <cc:Work
         rdf:about="">
        <dc:format>image/svg+xml</dc:format>
        <dc:type
           rdf:resource="http://purl.org/dc/dcmitype/StillImage" />
        <dc:title></dc:title>
      </cc:Work>
    </rdf:RDF>
  </metadata>
  <g
     inkscape:label="Layer 1"
     inkscape:groupmode="layer"
     id="layer1"
     transform="translate(0,-552.36224)">
    <g
       style="clip-rule:evenodd;fill-rule:evenodd;image-rendering:optimizeQuality;shape-rendering:geometricPrecision;text-rendering:geometricPrecision"
       id="g4157"
       transform="matrix(0.01176938,0,0,0.01176938,705.38917,686.0631)">
      <g
         id="Vrstva_x0020_1">
        <metadata
           id="CorelCorpID_0Corel-Layer" />
        <g
           id="_229870400">
          <rect
             id="rect4145"
             height="18775"
             width="18775"
             y="494"
             x="654"
             class="fil0"
             style="fill:none" />
          <path
             id="path4147"
             d="m 18255,10672 0,-3138 -1173,0 0,-1173 1173,0 0,-4694 -16428,0 0,4694 1173,0 0,1173 -1173,0 0,4694 1173,0 0,1173 -1173,0 0,4694 9005,0 c 907,732 2059,1173 3316,1173 2916,-1 5279,-2364 5280,-5280 0,-1257 -441,-2409 -1173,-3316 z m -9353,2729 -4728,0 0,-1173 5000,0 c -132,374 -227,766 -272,1173 z m 7006,-5867 -11734,0 0,-1173 11734,0 0,1173 z M 3001,4014 l 2347,0 0,1173 -2347,0 0,-1173 z m 0,5867 2347,0 0,1173 -2347,0 0,-1173 z m 2347,7040 -2347,0 0,-1173 2347,0 0,1173 z m 8801,1105 c -2230,-5 -4034,-1809 -4040,-4038 5,-2230 1809,-4034 4040,-4040 2229,5 4033,1809 4038,4040 -5,2229 -1809,4033 -4038,4038 z"
             class="fil1"
             inkscape:connector-curvature="0"
             style="fill:#000000" />
          <path
             d="m 14151,11274 -961,1 c -448,0 -777,360 -777,751 l 0,2774 c 0,379 297,691 595,739 l -895,1343 516,0 640,-938 876,0 1,0 1,0 876,0 640,938 516,0 -895,-1343 c 299,-48 595,-360 595,-739 l 0,-2774 c 0,-392 -329,-751 -777,-751 l -954,-1 z m -381,161 376,0 1,0 1,0 376,0 c 68,0 127,57 127,125 l 0,221 c 0,68 -56,126 -127,126 l -376,0 -1,0 -1,0 -376,0 c -71,0 -127,-58 -127,-126 l 0,-221 c 0,-68 59,-125 127,-125 z m -555,622 931,0 2,0 931,0 c 253,0 387,181 387,389 l 0,499 c 2,240 -173,387 -387,387 l -931,0 -1,0 -1,0 -931,0 c -214,0 -389,-147 -387,-387 l 0,-499 c 0,-208 134,-389 387,-389 z m -42,2396 c 188,0 341,152 341,341 0,188 -152,341 -341,341 -188,0 -341,-152 -341,-341 0,-188 152,-341 341,-341 z m 1939,0 c 188,0 341,152 341,341 0,188 -153,341 -341,341 -188,0 -341,-152 -341,-341 0,-188 152,-341 341,-341 z"
             class="fil1"
             id="path2229"
             inkscape:connector-curvature="0"
             style="fill:#000000" />
          <path
             d="m 13861,11194 c -119,0 -215,-96 -215,-215 0,-119 96,-215 215,-215 119,0 215,96 215,215 0,119 -96,215 -215,215 z"
             class="fil1"
             id="path2233"
             inkscape:connector-curvature="0"
             style="fill:#000000" />
          <path
             d="m 14433,11194 c 119,0 215,-96 215,-215 0,-119 -96,-215 -215,-215 -119,0 -215,96 -215,215 0,119 96,215 215,215 z"
             class="fil1"
             id="path2235"
             inkscape:connector-curvature="0"
             style="fill:#000000" />
        </g>
      </g>
    </g>
    <g
       transform="matrix(0.60208966,0,0,-0.60208966,567.38671,820.41839)"
       inkscape:label="Android_Robot_outlined"
       id="g4175">
      <g
         id="g4177" />
    </g>
    <text
       xml:space="preserve"
       style="font-style:normal;font-weight:normal;font-size:90.33396149px;line-height:125%;font-family:sans-serif;letter-spacing:0px;word-spacing:0px;fill:#000000;fill-opacity:1;stroke:none;stroke-width:1px;stroke-linecap:butt;stroke-linejoin:miter;stroke-opacity:1"
       x="76.50721"
       y="835.99487"
       id="text4244"
       sodipodi:linespacing="125%"><tspan
         sodipodi:role="line"
         id="tspan4246"
         x="76.50721"
         y="835.99487">hJOP Driver</tspan></text>
  </g>
</svg>
